<mxfile host="Electron" modified="2023-08-15T20:08:44.656Z" agent="Mozilla/5.0 (Windows NT 10.0; Win64; x64) AppleWebKit/537.36 (KHTML, like Gecko) draw.io/21.6.8 Chrome/114.0.5735.289 Electron/25.5.0 Safari/537.36" etag="m50sEKFWYfHo5yJGr73b" version="21.6.8" type="device">
  <diagram name="Страница 1" id="ZWjxMv2Fs4plNwlcsvSe">
    <mxGraphModel dx="8191" dy="2854" grid="1" gridSize="10" guides="1" tooltips="1" connect="1" arrows="1" fold="1" page="1" pageScale="1" pageWidth="827" pageHeight="1169" math="0" shadow="0">
      <root>
        <mxCell id="0" />
        <mxCell id="1" parent="0" />
        <mxCell id="KCRF5Rg9y9Djag35E3Hy-30" style="edgeStyle=orthogonalEdgeStyle;rounded=0;orthogonalLoop=1;jettySize=auto;html=1;exitX=0.5;exitY=1;exitDx=0;exitDy=0;exitPerimeter=0;fontFamily=Lucida Console;fontSize=14;fontStyle=1" edge="1" parent="1" source="KCRF5Rg9y9Djag35E3Hy-38">
          <mxGeometry relative="1" as="geometry">
            <mxPoint x="89" y="399.9999999999998" as="sourcePoint" />
            <mxPoint x="89" y="459.9999999999998" as="targetPoint" />
          </mxGeometry>
        </mxCell>
        <mxCell id="FLySiNRH1KvFXOBx_inZ-2" value="int i =0;&lt;br style=&quot;font-size: 14px;&quot;&gt;int j =0;&lt;br style=&quot;font-size: 14px;&quot;&gt;new string outArray[size];" style="rounded=0;whiteSpace=wrap;html=1;fontFamily=Lucida Console;fontSize=14;fontStyle=1" parent="1" vertex="1">
          <mxGeometry x="-11" y="590" width="200" height="80" as="geometry" />
        </mxCell>
        <mxCell id="KCRF5Rg9y9Djag35E3Hy-1" style="edgeStyle=orthogonalEdgeStyle;rounded=0;orthogonalLoop=1;jettySize=auto;html=1;entryX=0.5;entryY=0;entryDx=0;entryDy=0;fontFamily=Lucida Console;fontSize=14;fontStyle=1" edge="1" parent="1" source="FLySiNRH1KvFXOBx_inZ-3" target="FLySiNRH1KvFXOBx_inZ-5">
          <mxGeometry relative="1" as="geometry" />
        </mxCell>
        <mxCell id="KCRF5Rg9y9Djag35E3Hy-2" value="YES" style="edgeLabel;html=1;align=center;verticalAlign=middle;resizable=0;points=[];fontFamily=Lucida Console;fontSize=14;fontStyle=1" vertex="1" connectable="0" parent="KCRF5Rg9y9Djag35E3Hy-1">
          <mxGeometry x="-0.7667" y="-2" relative="1" as="geometry">
            <mxPoint as="offset" />
          </mxGeometry>
        </mxCell>
        <mxCell id="KCRF5Rg9y9Djag35E3Hy-4" style="edgeStyle=orthogonalEdgeStyle;rounded=0;orthogonalLoop=1;jettySize=auto;html=1;entryX=0.5;entryY=0;entryDx=0;entryDy=0;fontFamily=Lucida Console;fontSize=14;fontStyle=1" edge="1" parent="1" source="FLySiNRH1KvFXOBx_inZ-3" target="KCRF5Rg9y9Djag35E3Hy-139">
          <mxGeometry relative="1" as="geometry">
            <mxPoint x="-111" y="1080" as="targetPoint" />
            <Array as="points">
              <mxPoint x="-95" y="810" />
            </Array>
          </mxGeometry>
        </mxCell>
        <mxCell id="KCRF5Rg9y9Djag35E3Hy-72" value="NO" style="edgeLabel;html=1;align=center;verticalAlign=middle;resizable=0;points=[];fontFamily=Lucida Console;fontSize=14;fontStyle=1" vertex="1" connectable="0" parent="KCRF5Rg9y9Djag35E3Hy-4">
          <mxGeometry x="-0.7364" y="3" relative="1" as="geometry">
            <mxPoint x="27" y="-3" as="offset" />
          </mxGeometry>
        </mxCell>
        <mxCell id="FLySiNRH1KvFXOBx_inZ-3" value="i&amp;lt;arr.Length ?" style="rhombus;whiteSpace=wrap;html=1;fontFamily=Lucida Console;fontSize=14;fontStyle=1" parent="1" vertex="1">
          <mxGeometry x="-11" y="710" width="200" height="200" as="geometry" />
        </mxCell>
        <mxCell id="FLySiNRH1KvFXOBx_inZ-5" value="&lt;br&gt;string arr[i].Length &amp;lt;=3 ?" style="rhombus;whiteSpace=wrap;html=1;fontFamily=Lucida Console;fontSize=14;fontStyle=1" parent="1" vertex="1">
          <mxGeometry x="209" y="870" width="200" height="200" as="geometry" />
        </mxCell>
        <mxCell id="KCRF5Rg9y9Djag35E3Hy-36" style="edgeStyle=orthogonalEdgeStyle;rounded=0;orthogonalLoop=1;jettySize=auto;html=1;exitX=0.5;exitY=1;exitDx=0;exitDy=0;entryX=0.5;entryY=0;entryDx=0;entryDy=0;fontFamily=Lucida Console;fontSize=14;fontStyle=1" edge="1" parent="1" source="FLySiNRH1KvFXOBx_inZ-7" target="KCRF5Rg9y9Djag35E3Hy-3">
          <mxGeometry relative="1" as="geometry" />
        </mxCell>
        <mxCell id="FLySiNRH1KvFXOBx_inZ-7" value="j++" style="rounded=0;whiteSpace=wrap;html=1;fontFamily=Lucida Console;fontSize=14;fontStyle=1" parent="1" vertex="1">
          <mxGeometry x="428" y="1040" width="80" height="60" as="geometry" />
        </mxCell>
        <mxCell id="FLySiNRH1KvFXOBx_inZ-8" value="YES" style="endArrow=classic;html=1;rounded=0;entryX=0.5;entryY=0;entryDx=0;entryDy=0;fontFamily=Lucida Console;fontSize=14;fontStyle=1" parent="1" target="FLySiNRH1KvFXOBx_inZ-7" edge="1">
          <mxGeometry x="-0.75" width="50" height="50" relative="1" as="geometry">
            <mxPoint x="409" y="970" as="sourcePoint" />
            <mxPoint x="459" y="920" as="targetPoint" />
            <Array as="points">
              <mxPoint x="468" y="970" />
            </Array>
            <mxPoint as="offset" />
          </mxGeometry>
        </mxCell>
        <mxCell id="FLySiNRH1KvFXOBx_inZ-10" value="NO" style="endArrow=classic;html=1;rounded=0;exitX=0;exitY=0.5;exitDx=0;exitDy=0;entryX=0.5;entryY=0;entryDx=0;entryDy=0;fontFamily=Lucida Console;fontSize=14;fontStyle=1" parent="1" source="FLySiNRH1KvFXOBx_inZ-5" target="FLySiNRH1KvFXOBx_inZ-14" edge="1">
          <mxGeometry x="-0.6667" width="50" height="50" relative="1" as="geometry">
            <mxPoint x="149" y="950" as="sourcePoint" />
            <mxPoint x="89" y="1030" as="targetPoint" />
            <Array as="points">
              <mxPoint x="108" y="970" />
            </Array>
            <mxPoint as="offset" />
          </mxGeometry>
        </mxCell>
        <mxCell id="KCRF5Rg9y9Djag35E3Hy-81" style="edgeStyle=orthogonalEdgeStyle;rounded=0;orthogonalLoop=1;jettySize=auto;html=1;entryX=0.5;entryY=0;entryDx=0;entryDy=0;fontFamily=Lucida Console;fontSize=14;fontStyle=1;exitX=0.5;exitY=1;exitDx=0;exitDy=0;" edge="1" parent="1" source="FLySiNRH1KvFXOBx_inZ-14" target="FLySiNRH1KvFXOBx_inZ-3">
          <mxGeometry relative="1" as="geometry">
            <mxPoint x="98" y="1270" as="sourcePoint" />
            <Array as="points">
              <mxPoint x="108" y="1300" />
              <mxPoint x="578" y="1300" />
              <mxPoint x="578" y="690" />
              <mxPoint x="89" y="690" />
            </Array>
          </mxGeometry>
        </mxCell>
        <mxCell id="FLySiNRH1KvFXOBx_inZ-14" value="i++" style="rounded=0;whiteSpace=wrap;html=1;fontFamily=Lucida Console;fontSize=14;fontStyle=1" parent="1" vertex="1">
          <mxGeometry x="68" y="1190" width="80" height="60" as="geometry" />
        </mxCell>
        <mxCell id="FLySiNRH1KvFXOBx_inZ-18" value="" style="endArrow=classic;html=1;rounded=0;entryX=0.5;entryY=0;entryDx=0;entryDy=0;fontFamily=Lucida Console;fontSize=14;fontStyle=1" parent="1" target="FLySiNRH1KvFXOBx_inZ-3" edge="1">
          <mxGeometry width="50" height="50" relative="1" as="geometry">
            <mxPoint x="89" y="670" as="sourcePoint" />
            <mxPoint x="139" y="620" as="targetPoint" />
          </mxGeometry>
        </mxCell>
        <mxCell id="wu6JLt4xlholXaIrfsIf-1" value="for" style="text;html=1;align=center;verticalAlign=middle;resizable=0;points=[];autosize=1;strokeColor=none;fillColor=none;rounded=0;shadow=0;fontStyle=3;fontFamily=Lucida Console;fontSize=14;" parent="1" vertex="1">
          <mxGeometry x="64" y="740" width="50" height="30" as="geometry" />
        </mxCell>
        <mxCell id="wu6JLt4xlholXaIrfsIf-2" value="if" style="text;html=1;align=center;verticalAlign=middle;resizable=0;points=[];autosize=1;strokeColor=none;fillColor=none;rounded=0;shadow=0;fontStyle=3;fontFamily=Lucida Console;fontSize=14;" parent="1" vertex="1">
          <mxGeometry x="289" y="895" width="40" height="30" as="geometry" />
        </mxCell>
        <mxCell id="KCRF5Rg9y9Djag35E3Hy-37" style="edgeStyle=orthogonalEdgeStyle;rounded=0;orthogonalLoop=1;jettySize=auto;html=1;exitX=0.5;exitY=1;exitDx=0;exitDy=0;entryX=1;entryY=0.5;entryDx=0;entryDy=0;fontFamily=Lucida Console;fontSize=14;fontStyle=1" edge="1" parent="1" source="KCRF5Rg9y9Djag35E3Hy-3" target="FLySiNRH1KvFXOBx_inZ-14">
          <mxGeometry relative="1" as="geometry" />
        </mxCell>
        <mxCell id="KCRF5Rg9y9Djag35E3Hy-3" value="outArray[j] = arr[i]" style="rounded=0;whiteSpace=wrap;html=1;fontFamily=Lucida Console;fontSize=14;fontStyle=1" vertex="1" parent="1">
          <mxGeometry x="388" y="1140" width="160" height="60" as="geometry" />
        </mxCell>
        <mxCell id="KCRF5Rg9y9Djag35E3Hy-90" style="edgeStyle=orthogonalEdgeStyle;rounded=0;orthogonalLoop=1;jettySize=auto;html=1;exitX=0.5;exitY=1;exitDx=0;exitDy=0;fontFamily=Lucida Console;fontSize=14;fontStyle=1" edge="1" parent="1" source="KCRF5Rg9y9Djag35E3Hy-5" target="KCRF5Rg9y9Djag35E3Hy-89">
          <mxGeometry relative="1" as="geometry" />
        </mxCell>
        <mxCell id="KCRF5Rg9y9Djag35E3Hy-5" value="Start" style="rounded=1;whiteSpace=wrap;html=1;fontFamily=Lucida Console;fontSize=14;fontStyle=1" vertex="1" parent="1">
          <mxGeometry x="-2980.14" y="230" width="120" height="60" as="geometry" />
        </mxCell>
        <mxCell id="KCRF5Rg9y9Djag35E3Hy-6" value="int i =0;&lt;br style=&quot;font-size: 14px;&quot;&gt;int count =0;" style="rounded=0;whiteSpace=wrap;html=1;fontFamily=Lucida Console;fontSize=14;fontStyle=1" vertex="1" parent="1">
          <mxGeometry x="-916" y="570" width="200" height="70" as="geometry" />
        </mxCell>
        <mxCell id="KCRF5Rg9y9Djag35E3Hy-7" style="edgeStyle=orthogonalEdgeStyle;rounded=0;orthogonalLoop=1;jettySize=auto;html=1;entryX=0.5;entryY=0;entryDx=0;entryDy=0;fontFamily=Lucida Console;fontSize=14;fontStyle=1" edge="1" parent="1" source="KCRF5Rg9y9Djag35E3Hy-10" target="KCRF5Rg9y9Djag35E3Hy-11">
          <mxGeometry relative="1" as="geometry" />
        </mxCell>
        <mxCell id="KCRF5Rg9y9Djag35E3Hy-8" value="YES" style="edgeLabel;html=1;align=center;verticalAlign=middle;resizable=0;points=[];fontFamily=Lucida Console;fontSize=14;fontStyle=1" vertex="1" connectable="0" parent="KCRF5Rg9y9Djag35E3Hy-7">
          <mxGeometry x="-0.7667" y="-2" relative="1" as="geometry">
            <mxPoint as="offset" />
          </mxGeometry>
        </mxCell>
        <mxCell id="KCRF5Rg9y9Djag35E3Hy-9" style="edgeStyle=orthogonalEdgeStyle;rounded=0;orthogonalLoop=1;jettySize=auto;html=1;entryX=0.5;entryY=0;entryDx=0;entryDy=0;fontFamily=Lucida Console;fontSize=14;fontStyle=1" edge="1" parent="1" source="KCRF5Rg9y9Djag35E3Hy-10">
          <mxGeometry relative="1" as="geometry">
            <mxPoint x="-998" y="1090" as="targetPoint" />
          </mxGeometry>
        </mxCell>
        <mxCell id="KCRF5Rg9y9Djag35E3Hy-74" value="NO" style="edgeLabel;html=1;align=center;verticalAlign=middle;resizable=0;points=[];fontFamily=Lucida Console;fontSize=14;fontStyle=1" vertex="1" connectable="0" parent="KCRF5Rg9y9Djag35E3Hy-9">
          <mxGeometry x="-0.8588" y="2" relative="1" as="geometry">
            <mxPoint as="offset" />
          </mxGeometry>
        </mxCell>
        <mxCell id="KCRF5Rg9y9Djag35E3Hy-10" value="i&amp;lt;arr.Length ?" style="rhombus;whiteSpace=wrap;html=1;fontFamily=Lucida Console;fontSize=14;fontStyle=1" vertex="1" parent="1">
          <mxGeometry x="-916" y="680" width="200" height="200" as="geometry" />
        </mxCell>
        <mxCell id="KCRF5Rg9y9Djag35E3Hy-11" value="&lt;br&gt;string arr[i].Length &amp;lt;=3 ?" style="rhombus;whiteSpace=wrap;html=1;fontFamily=Lucida Console;fontSize=14;fontStyle=1" vertex="1" parent="1">
          <mxGeometry x="-696" y="840" width="200" height="200" as="geometry" />
        </mxCell>
        <mxCell id="KCRF5Rg9y9Djag35E3Hy-25" style="edgeStyle=orthogonalEdgeStyle;rounded=0;orthogonalLoop=1;jettySize=auto;html=1;exitX=0.5;exitY=1;exitDx=0;exitDy=0;entryX=1;entryY=0.5;entryDx=0;entryDy=0;fontFamily=Lucida Console;fontSize=14;fontStyle=1" edge="1" parent="1" source="KCRF5Rg9y9Djag35E3Hy-12" target="KCRF5Rg9y9Djag35E3Hy-15">
          <mxGeometry relative="1" as="geometry">
            <mxPoint x="-406" y="1150" as="targetPoint" />
          </mxGeometry>
        </mxCell>
        <mxCell id="KCRF5Rg9y9Djag35E3Hy-12" value="count++" style="rounded=0;whiteSpace=wrap;html=1;fontFamily=Lucida Console;fontSize=14;fontStyle=1" vertex="1" parent="1">
          <mxGeometry x="-456" y="1010" width="100" height="60" as="geometry" />
        </mxCell>
        <mxCell id="KCRF5Rg9y9Djag35E3Hy-13" value="YES" style="endArrow=classic;html=1;rounded=0;entryX=0.5;entryY=0;entryDx=0;entryDy=0;exitX=1;exitY=0.5;exitDx=0;exitDy=0;fontFamily=Lucida Console;fontSize=14;fontStyle=1" edge="1" parent="1" target="KCRF5Rg9y9Djag35E3Hy-12" source="KCRF5Rg9y9Djag35E3Hy-11">
          <mxGeometry x="-0.75" width="50" height="50" relative="1" as="geometry">
            <mxPoint x="-266" y="870" as="sourcePoint" />
            <mxPoint x="-216" y="820" as="targetPoint" />
            <Array as="points">
              <mxPoint x="-406" y="940" />
            </Array>
            <mxPoint as="offset" />
          </mxGeometry>
        </mxCell>
        <mxCell id="KCRF5Rg9y9Djag35E3Hy-14" value="NO" style="endArrow=classic;html=1;rounded=0;exitX=0;exitY=0.5;exitDx=0;exitDy=0;entryX=0.5;entryY=0;entryDx=0;entryDy=0;fontFamily=Lucida Console;fontSize=14;fontStyle=1" edge="1" parent="1" target="KCRF5Rg9y9Djag35E3Hy-15">
          <mxGeometry x="-0.6667" width="50" height="50" relative="1" as="geometry">
            <mxPoint x="-696" y="940" as="sourcePoint" />
            <mxPoint x="-816" y="1000" as="targetPoint" />
            <Array as="points">
              <mxPoint x="-776" y="940" />
            </Array>
            <mxPoint as="offset" />
          </mxGeometry>
        </mxCell>
        <mxCell id="KCRF5Rg9y9Djag35E3Hy-80" style="edgeStyle=orthogonalEdgeStyle;rounded=0;orthogonalLoop=1;jettySize=auto;html=1;exitX=0.5;exitY=1;exitDx=0;exitDy=0;entryX=0.5;entryY=0;entryDx=0;entryDy=0;fontFamily=Lucida Console;fontSize=14;fontStyle=1" edge="1" parent="1" source="KCRF5Rg9y9Djag35E3Hy-15" target="KCRF5Rg9y9Djag35E3Hy-10">
          <mxGeometry relative="1" as="geometry">
            <Array as="points">
              <mxPoint x="-776" y="1210" />
              <mxPoint x="-326" y="1210" />
              <mxPoint x="-326" y="660" />
              <mxPoint x="-816" y="660" />
            </Array>
          </mxGeometry>
        </mxCell>
        <mxCell id="KCRF5Rg9y9Djag35E3Hy-15" value="index++" style="rounded=0;whiteSpace=wrap;html=1;fontFamily=Lucida Console;fontSize=14;fontStyle=1" vertex="1" parent="1">
          <mxGeometry x="-836" y="1090" width="120" height="60" as="geometry" />
        </mxCell>
        <mxCell id="KCRF5Rg9y9Djag35E3Hy-17" value="" style="endArrow=classic;html=1;rounded=0;entryX=0.5;entryY=0;entryDx=0;entryDy=0;fontFamily=Lucida Console;fontSize=14;fontStyle=1" edge="1" parent="1" target="KCRF5Rg9y9Djag35E3Hy-10">
          <mxGeometry width="50" height="50" relative="1" as="geometry">
            <mxPoint x="-816" y="640" as="sourcePoint" />
            <mxPoint x="-766" y="590" as="targetPoint" />
          </mxGeometry>
        </mxCell>
        <mxCell id="KCRF5Rg9y9Djag35E3Hy-48" style="edgeStyle=orthogonalEdgeStyle;rounded=0;orthogonalLoop=1;jettySize=auto;html=1;entryX=0.5;entryY=0;entryDx=0;entryDy=0;entryPerimeter=0;fontFamily=Lucida Console;fontSize=14;fontStyle=1" edge="1" parent="1" target="KCRF5Rg9y9Djag35E3Hy-47">
          <mxGeometry relative="1" as="geometry">
            <mxPoint x="-998.0000000000009" y="1170" as="sourcePoint" />
          </mxGeometry>
        </mxCell>
        <mxCell id="KCRF5Rg9y9Djag35E3Hy-19" value="End" style="rounded=1;whiteSpace=wrap;html=1;fontFamily=Lucida Console;fontSize=14;fontStyle=1" vertex="1" parent="1">
          <mxGeometry x="-2980.2799999999997" y="1550" width="120" height="60" as="geometry" />
        </mxCell>
        <mxCell id="KCRF5Rg9y9Djag35E3Hy-21" value="" style="endArrow=classic;html=1;rounded=0;exitX=0.5;exitY=1;exitDx=0;exitDy=0;fontFamily=Lucida Console;fontSize=14;fontStyle=1" edge="1" parent="1" target="KCRF5Rg9y9Djag35E3Hy-6" source="KCRF5Rg9y9Djag35E3Hy-136">
          <mxGeometry width="50" height="50" relative="1" as="geometry">
            <mxPoint x="-816" y="540" as="sourcePoint" />
            <mxPoint x="-766" y="450" as="targetPoint" />
          </mxGeometry>
        </mxCell>
        <mxCell id="KCRF5Rg9y9Djag35E3Hy-22" value="for" style="text;html=1;align=center;verticalAlign=middle;resizable=0;points=[];autosize=1;strokeColor=none;fillColor=none;rounded=0;shadow=0;fontStyle=3;fontFamily=Lucida Console;fontSize=14;" vertex="1" parent="1">
          <mxGeometry x="-841" y="710" width="50" height="30" as="geometry" />
        </mxCell>
        <mxCell id="KCRF5Rg9y9Djag35E3Hy-23" value="if" style="text;html=1;align=center;verticalAlign=middle;resizable=0;points=[];autosize=1;strokeColor=none;fillColor=none;rounded=0;shadow=0;fontStyle=3;fontFamily=Lucida Console;fontSize=14;" vertex="1" parent="1">
          <mxGeometry x="-616" y="860" width="40" height="30" as="geometry" />
        </mxCell>
        <mxCell id="KCRF5Rg9y9Djag35E3Hy-38" value="3&lt;br style=&quot;font-size: 14px;&quot;&gt;start" style="strokeWidth=2;html=1;shape=mxgraph.flowchart.start_2;whiteSpace=wrap;fontFamily=Lucida Console;fontSize=14;fontStyle=1" vertex="1" parent="1">
          <mxGeometry x="39" y="290" width="100" height="100" as="geometry" />
        </mxCell>
        <mxCell id="KCRF5Rg9y9Djag35E3Hy-41" style="edgeStyle=orthogonalEdgeStyle;rounded=0;orthogonalLoop=1;jettySize=auto;html=1;entryX=0.5;entryY=0;entryDx=0;entryDy=0;fontFamily=Lucida Console;fontSize=14;fontStyle=1" edge="1" parent="1" target="FLySiNRH1KvFXOBx_inZ-2">
          <mxGeometry relative="1" as="geometry">
            <mxPoint x="89" y="539.9999999999998" as="sourcePoint" />
          </mxGeometry>
        </mxCell>
        <mxCell id="KCRF5Rg9y9Djag35E3Hy-43" value="" style="endArrow=classic;html=1;rounded=0;entryX=0.5;entryY=0;entryDx=0;entryDy=0;fontFamily=Lucida Console;fontSize=14;fontStyle=1;exitX=0.5;exitY=1;exitDx=0;exitDy=0;" edge="1" parent="1" source="KCRF5Rg9y9Djag35E3Hy-139" target="KCRF5Rg9y9Djag35E3Hy-42">
          <mxGeometry width="50" height="50" relative="1" as="geometry">
            <mxPoint x="-111" y="1160" as="sourcePoint" />
            <mxPoint x="-111" y="1300" as="targetPoint" />
          </mxGeometry>
        </mxCell>
        <mxCell id="KCRF5Rg9y9Djag35E3Hy-42" value="3&lt;br style=&quot;font-size: 14px;&quot;&gt;end" style="strokeWidth=2;html=1;shape=mxgraph.flowchart.start_2;whiteSpace=wrap;fontFamily=Lucida Console;fontSize=14;fontStyle=1" vertex="1" parent="1">
          <mxGeometry x="-145" y="1200" width="100" height="100" as="geometry" />
        </mxCell>
        <mxCell id="KCRF5Rg9y9Djag35E3Hy-46" style="edgeStyle=orthogonalEdgeStyle;rounded=0;orthogonalLoop=1;jettySize=auto;html=1;exitX=0.5;exitY=1;exitDx=0;exitDy=0;exitPerimeter=0;entryX=0.5;entryY=0;entryDx=0;entryDy=0;fontFamily=Lucida Console;fontSize=14;fontStyle=1" edge="1" parent="1" source="KCRF5Rg9y9Djag35E3Hy-45">
          <mxGeometry relative="1" as="geometry">
            <mxPoint x="-816" y="440" as="targetPoint" />
          </mxGeometry>
        </mxCell>
        <mxCell id="KCRF5Rg9y9Djag35E3Hy-45" value="2&lt;br style=&quot;font-size: 14px;&quot;&gt;start" style="strokeWidth=2;html=1;shape=mxgraph.flowchart.start_2;whiteSpace=wrap;fontFamily=Lucida Console;fontSize=14;fontStyle=1" vertex="1" parent="1">
          <mxGeometry x="-866" y="290" width="100" height="100" as="geometry" />
        </mxCell>
        <mxCell id="KCRF5Rg9y9Djag35E3Hy-47" value="2&lt;br style=&quot;font-size: 14px;&quot;&gt;end" style="strokeWidth=2;html=1;shape=mxgraph.flowchart.start_2;whiteSpace=wrap;fontFamily=Lucida Console;fontSize=14;fontStyle=1" vertex="1" parent="1">
          <mxGeometry x="-1048" y="1200" width="100" height="100" as="geometry" />
        </mxCell>
        <mxCell id="KCRF5Rg9y9Djag35E3Hy-49" value="int i =0;" style="rounded=0;whiteSpace=wrap;html=1;fontFamily=Lucida Console;fontSize=14;fontStyle=1" vertex="1" parent="1">
          <mxGeometry x="-1793" y="570" width="200" height="70" as="geometry" />
        </mxCell>
        <mxCell id="KCRF5Rg9y9Djag35E3Hy-50" style="edgeStyle=orthogonalEdgeStyle;rounded=0;orthogonalLoop=1;jettySize=auto;html=1;entryX=0.5;entryY=0;entryDx=0;entryDy=0;fontFamily=Lucida Console;fontSize=14;fontStyle=1" edge="1" parent="1" source="KCRF5Rg9y9Djag35E3Hy-53" target="KCRF5Rg9y9Djag35E3Hy-77">
          <mxGeometry relative="1" as="geometry">
            <mxPoint x="-1411" y="540" as="targetPoint" />
          </mxGeometry>
        </mxCell>
        <mxCell id="KCRF5Rg9y9Djag35E3Hy-51" value="YES" style="edgeLabel;html=1;align=center;verticalAlign=middle;resizable=0;points=[];fontFamily=Lucida Console;fontSize=14;fontStyle=1" vertex="1" connectable="0" parent="KCRF5Rg9y9Djag35E3Hy-50">
          <mxGeometry x="-0.7667" y="-2" relative="1" as="geometry">
            <mxPoint x="2" y="-2" as="offset" />
          </mxGeometry>
        </mxCell>
        <mxCell id="KCRF5Rg9y9Djag35E3Hy-52" style="edgeStyle=orthogonalEdgeStyle;rounded=0;orthogonalLoop=1;jettySize=auto;html=1;entryX=0.5;entryY=0;entryDx=0;entryDy=0;fontFamily=Lucida Console;fontSize=14;fontStyle=1" edge="1" parent="1" source="KCRF5Rg9y9Djag35E3Hy-53" target="KCRF5Rg9y9Djag35E3Hy-118">
          <mxGeometry relative="1" as="geometry">
            <mxPoint x="-1875" y="1090" as="targetPoint" />
            <Array as="points">
              <mxPoint x="-1875" y="780" />
            </Array>
          </mxGeometry>
        </mxCell>
        <mxCell id="KCRF5Rg9y9Djag35E3Hy-124" value="NO" style="edgeLabel;html=1;align=center;verticalAlign=middle;resizable=0;points=[];fontFamily=Lucida Console;fontSize=14;fontStyle=1" vertex="1" connectable="0" parent="KCRF5Rg9y9Djag35E3Hy-52">
          <mxGeometry x="-0.8044" y="-1" relative="1" as="geometry">
            <mxPoint as="offset" />
          </mxGeometry>
        </mxCell>
        <mxCell id="KCRF5Rg9y9Djag35E3Hy-53" value="i &amp;lt; size ?" style="rhombus;whiteSpace=wrap;html=1;fontFamily=Lucida Console;fontSize=14;fontStyle=1" vertex="1" parent="1">
          <mxGeometry x="-1793" y="680" width="200" height="200" as="geometry" />
        </mxCell>
        <mxCell id="KCRF5Rg9y9Djag35E3Hy-54" value="readElement &lt;br&gt;is not Empty?" style="rhombus;whiteSpace=wrap;html=1;fontFamily=Lucida Console;fontSize=14;fontStyle=1" vertex="1" parent="1">
          <mxGeometry x="-1561" y="940" width="200" height="200" as="geometry" />
        </mxCell>
        <mxCell id="KCRF5Rg9y9Djag35E3Hy-83" style="edgeStyle=orthogonalEdgeStyle;rounded=0;orthogonalLoop=1;jettySize=auto;html=1;exitX=0.5;exitY=1;exitDx=0;exitDy=0;entryX=1;entryY=0.5;entryDx=0;entryDy=0;fontFamily=Lucida Console;fontSize=14;fontStyle=1" edge="1" parent="1" source="KCRF5Rg9y9Djag35E3Hy-56" target="KCRF5Rg9y9Djag35E3Hy-79">
          <mxGeometry relative="1" as="geometry" />
        </mxCell>
        <mxCell id="KCRF5Rg9y9Djag35E3Hy-56" value="array[i] = readElement" style="rounded=0;whiteSpace=wrap;html=1;fontFamily=Lucida Console;fontSize=14;fontStyle=1" vertex="1" parent="1">
          <mxGeometry x="-1330" y="1110" width="120" height="60" as="geometry" />
        </mxCell>
        <mxCell id="KCRF5Rg9y9Djag35E3Hy-57" value="Yes" style="endArrow=classic;html=1;rounded=0;entryX=0.5;entryY=0;entryDx=0;entryDy=0;exitX=1;exitY=0.5;exitDx=0;exitDy=0;fontFamily=Lucida Console;fontSize=14;fontStyle=1" edge="1" parent="1" source="KCRF5Rg9y9Djag35E3Hy-54" target="KCRF5Rg9y9Djag35E3Hy-56">
          <mxGeometry x="-0.75" width="50" height="50" relative="1" as="geometry">
            <mxPoint x="-1131" y="970" as="sourcePoint" />
            <mxPoint x="-1081" y="920" as="targetPoint" />
            <Array as="points">
              <mxPoint x="-1271" y="1040" />
            </Array>
            <mxPoint as="offset" />
          </mxGeometry>
        </mxCell>
        <mxCell id="KCRF5Rg9y9Djag35E3Hy-58" value="No" style="endArrow=classic;html=1;rounded=0;exitX=0;exitY=0.5;exitDx=0;exitDy=0;entryX=0.5;entryY=0;entryDx=0;entryDy=0;fontFamily=Lucida Console;fontSize=14;fontStyle=1" edge="1" parent="1" target="KCRF5Rg9y9Djag35E3Hy-59">
          <mxGeometry x="-0.6667" width="50" height="50" relative="1" as="geometry">
            <mxPoint x="-1561" y="1040" as="sourcePoint" />
            <mxPoint x="-1681" y="1100" as="targetPoint" />
            <Array as="points">
              <mxPoint x="-1661" y="1040" />
            </Array>
            <mxPoint as="offset" />
          </mxGeometry>
        </mxCell>
        <mxCell id="KCRF5Rg9y9Djag35E3Hy-84" style="edgeStyle=orthogonalEdgeStyle;rounded=0;orthogonalLoop=1;jettySize=auto;html=1;exitX=0.5;exitY=1;exitDx=0;exitDy=0;entryX=0;entryY=0.5;entryDx=0;entryDy=0;fontFamily=Lucida Console;fontSize=14;fontStyle=1" edge="1" parent="1" source="KCRF5Rg9y9Djag35E3Hy-59" target="KCRF5Rg9y9Djag35E3Hy-79">
          <mxGeometry relative="1" as="geometry" />
        </mxCell>
        <mxCell id="KCRF5Rg9y9Djag35E3Hy-59" value="i--" style="rounded=0;whiteSpace=wrap;html=1;fontFamily=Lucida Console;fontSize=14;fontStyle=1" vertex="1" parent="1">
          <mxGeometry x="-1700" y="1110" width="80" height="60" as="geometry" />
        </mxCell>
        <mxCell id="KCRF5Rg9y9Djag35E3Hy-60" value="" style="endArrow=classic;html=1;rounded=0;entryX=0.5;entryY=0;entryDx=0;entryDy=0;fontFamily=Lucida Console;fontSize=14;fontStyle=1" edge="1" parent="1" target="KCRF5Rg9y9Djag35E3Hy-53">
          <mxGeometry width="50" height="50" relative="1" as="geometry">
            <mxPoint x="-1693" y="640" as="sourcePoint" />
            <mxPoint x="-1643" y="590" as="targetPoint" />
          </mxGeometry>
        </mxCell>
        <mxCell id="KCRF5Rg9y9Djag35E3Hy-61" style="edgeStyle=orthogonalEdgeStyle;rounded=0;orthogonalLoop=1;jettySize=auto;html=1;entryX=0.5;entryY=0;entryDx=0;entryDy=0;entryPerimeter=0;exitX=0.5;exitY=1;exitDx=0;exitDy=0;fontFamily=Lucida Console;fontSize=14;fontStyle=1" edge="1" parent="1" source="KCRF5Rg9y9Djag35E3Hy-118" target="KCRF5Rg9y9Djag35E3Hy-69">
          <mxGeometry relative="1" as="geometry">
            <mxPoint x="-1875" y="1170" as="sourcePoint" />
          </mxGeometry>
        </mxCell>
        <mxCell id="KCRF5Rg9y9Djag35E3Hy-63" value="" style="endArrow=classic;html=1;rounded=0;exitX=0.5;exitY=1;exitDx=0;exitDy=0;fontFamily=Lucida Console;fontSize=14;fontStyle=1" edge="1" parent="1" source="KCRF5Rg9y9Djag35E3Hy-134" target="KCRF5Rg9y9Djag35E3Hy-49">
          <mxGeometry width="50" height="50" relative="1" as="geometry">
            <mxPoint x="-1681" y="530" as="sourcePoint" />
            <mxPoint x="-1643" y="450" as="targetPoint" />
          </mxGeometry>
        </mxCell>
        <mxCell id="KCRF5Rg9y9Djag35E3Hy-64" value="for" style="text;html=1;align=center;verticalAlign=middle;resizable=0;points=[];autosize=1;strokeColor=none;fillColor=none;rounded=0;shadow=0;fontStyle=3;fontFamily=Lucida Console;fontSize=14;" vertex="1" parent="1">
          <mxGeometry x="-1718" y="710" width="50" height="30" as="geometry" />
        </mxCell>
        <mxCell id="KCRF5Rg9y9Djag35E3Hy-65" value="if" style="text;html=1;align=center;verticalAlign=middle;resizable=0;points=[];autosize=1;strokeColor=none;fillColor=none;rounded=0;shadow=0;fontStyle=3;fontFamily=Lucida Console;fontSize=14;" vertex="1" parent="1">
          <mxGeometry x="-1481" y="960" width="40" height="30" as="geometry" />
        </mxCell>
        <mxCell id="KCRF5Rg9y9Djag35E3Hy-67" style="edgeStyle=orthogonalEdgeStyle;rounded=0;orthogonalLoop=1;jettySize=auto;html=1;exitX=0.5;exitY=1;exitDx=0;exitDy=0;exitPerimeter=0;entryX=0.5;entryY=0;entryDx=0;entryDy=0;fontFamily=Lucida Console;fontSize=14;fontStyle=1" edge="1" parent="1" source="KCRF5Rg9y9Djag35E3Hy-68">
          <mxGeometry relative="1" as="geometry">
            <mxPoint x="-1693" y="440.0000000000002" as="targetPoint" />
          </mxGeometry>
        </mxCell>
        <mxCell id="KCRF5Rg9y9Djag35E3Hy-68" value="1&lt;br style=&quot;font-size: 14px;&quot;&gt;start" style="strokeWidth=2;html=1;shape=mxgraph.flowchart.start_2;whiteSpace=wrap;fontFamily=Lucida Console;fontSize=14;fontStyle=1" vertex="1" parent="1">
          <mxGeometry x="-1743" y="290" width="100" height="100" as="geometry" />
        </mxCell>
        <mxCell id="KCRF5Rg9y9Djag35E3Hy-69" value="1&lt;br style=&quot;font-size: 14px;&quot;&gt;end" style="strokeWidth=2;html=1;shape=mxgraph.flowchart.start_2;whiteSpace=wrap;fontFamily=Lucida Console;fontSize=14;fontStyle=1" vertex="1" parent="1">
          <mxGeometry x="-1925" y="1200" width="100" height="100" as="geometry" />
        </mxCell>
        <mxCell id="KCRF5Rg9y9Djag35E3Hy-70" value="&lt;div style=&quot;font-size: 14px; line-height: 19px;&quot;&gt;&lt;div style=&quot;font-size: 14px;&quot;&gt;int CountLength (string[] arr)&lt;/div&gt;&lt;/div&gt;" style="text;whiteSpace=wrap;html=1;fontFamily=Lucida Console;fontSize=14;fontStyle=1" vertex="1" parent="1">
          <mxGeometry x="-948" y="240" width="300" height="40" as="geometry" />
        </mxCell>
        <mxCell id="KCRF5Rg9y9Djag35E3Hy-71" value="&lt;div style=&quot;font-size: 14px; line-height: 19px;&quot;&gt;&lt;div style=&quot;font-size: 14px;&quot;&gt;string[] CreateNewArray(string[] arr, int size)&lt;/div&gt;&lt;/div&gt;" style="text;whiteSpace=wrap;html=1;fontFamily=Lucida Console;fontSize=14;fontStyle=1" vertex="1" parent="1">
          <mxGeometry x="-101" y="240" width="549" height="40" as="geometry" />
        </mxCell>
        <mxCell id="KCRF5Rg9y9Djag35E3Hy-78" style="edgeStyle=orthogonalEdgeStyle;rounded=0;orthogonalLoop=1;jettySize=auto;html=1;exitX=0.5;exitY=1;exitDx=0;exitDy=0;entryX=0.5;entryY=0;entryDx=0;entryDy=0;fontFamily=Lucida Console;fontSize=14;fontStyle=1" edge="1" parent="1" source="KCRF5Rg9y9Djag35E3Hy-77" target="KCRF5Rg9y9Djag35E3Hy-54">
          <mxGeometry relative="1" as="geometry" />
        </mxCell>
        <mxCell id="KCRF5Rg9y9Djag35E3Hy-77" value="string readElement &lt;br style=&quot;font-size: 14px;&quot;&gt;= Console.ReadLine()" style="shape=parallelogram;html=1;strokeWidth=1;perimeter=parallelogramPerimeter;whiteSpace=wrap;rounded=0;arcSize=12;size=0.23;fontFamily=Lucida Console;fontSize=14;fontStyle=1" vertex="1" parent="1">
          <mxGeometry x="-1590" y="820" width="260" height="80" as="geometry" />
        </mxCell>
        <mxCell id="KCRF5Rg9y9Djag35E3Hy-82" style="edgeStyle=orthogonalEdgeStyle;rounded=0;orthogonalLoop=1;jettySize=auto;html=1;entryX=0.5;entryY=0;entryDx=0;entryDy=0;fontFamily=Lucida Console;fontSize=14;fontStyle=1" edge="1" parent="1" source="KCRF5Rg9y9Djag35E3Hy-79" target="KCRF5Rg9y9Djag35E3Hy-53">
          <mxGeometry relative="1" as="geometry">
            <Array as="points">
              <mxPoint x="-1461" y="1330" />
              <mxPoint x="-1171" y="1330" />
              <mxPoint x="-1171" y="660" />
              <mxPoint x="-1693" y="660" />
            </Array>
          </mxGeometry>
        </mxCell>
        <mxCell id="KCRF5Rg9y9Djag35E3Hy-79" value="index++" style="rounded=0;whiteSpace=wrap;html=1;fontFamily=Lucida Console;fontSize=14;fontStyle=1" vertex="1" parent="1">
          <mxGeometry x="-1521" y="1220" width="120" height="60" as="geometry" />
        </mxCell>
        <mxCell id="KCRF5Rg9y9Djag35E3Hy-85" value="&lt;div style=&quot;font-size: 14px; line-height: 19px;&quot;&gt;&lt;div style=&quot;font-size: 14px;&quot;&gt;string[] GetArray(int size)&lt;/div&gt;&lt;/div&gt;" style="text;whiteSpace=wrap;html=1;fontFamily=Lucida Console;fontSize=14;fontStyle=1" vertex="1" parent="1">
          <mxGeometry x="-1811" y="240" width="240" height="40" as="geometry" />
        </mxCell>
        <mxCell id="KCRF5Rg9y9Djag35E3Hy-86" value="1" style="strokeWidth=2;html=1;shape=mxgraph.flowchart.start_2;whiteSpace=wrap;fontFamily=Lucida Console;fontSize=14;fontStyle=1" vertex="1" parent="1">
          <mxGeometry x="-2318" y="1005" width="100" height="100" as="geometry" />
        </mxCell>
        <mxCell id="KCRF5Rg9y9Djag35E3Hy-87" value="2" style="strokeWidth=2;html=1;shape=mxgraph.flowchart.start_2;whiteSpace=wrap;fontFamily=Lucida Console;fontSize=14;fontStyle=1" vertex="1" parent="1">
          <mxGeometry x="-3095.2799999999997" y="1390" width="100" height="100" as="geometry" />
        </mxCell>
        <mxCell id="KCRF5Rg9y9Djag35E3Hy-88" value="3" style="strokeWidth=2;html=1;shape=mxgraph.flowchart.start_2;whiteSpace=wrap;fontFamily=Lucida Console;fontSize=14;fontStyle=1" vertex="1" parent="1">
          <mxGeometry x="-2318" y="1205" width="100" height="100" as="geometry" />
        </mxCell>
        <mxCell id="KCRF5Rg9y9Djag35E3Hy-93" style="edgeStyle=orthogonalEdgeStyle;rounded=0;orthogonalLoop=1;jettySize=auto;html=1;exitX=0.5;exitY=1;exitDx=0;exitDy=0;entryX=0.5;entryY=0;entryDx=0;entryDy=0;fontFamily=Lucida Console;fontSize=14;fontStyle=1" edge="1" parent="1" source="KCRF5Rg9y9Djag35E3Hy-89" target="KCRF5Rg9y9Djag35E3Hy-92">
          <mxGeometry relative="1" as="geometry" />
        </mxCell>
        <mxCell id="KCRF5Rg9y9Djag35E3Hy-89" value="string strNumber&lt;br style=&quot;font-size: 14px;&quot;&gt;= Console.ReadLine()" style="shape=parallelogram;html=1;strokeWidth=1;perimeter=parallelogramPerimeter;whiteSpace=wrap;rounded=0;arcSize=12;size=0.23;fontFamily=Lucida Console;fontSize=14;fontStyle=1" vertex="1" parent="1">
          <mxGeometry x="-3050" y="430" width="260" height="80" as="geometry" />
        </mxCell>
        <mxCell id="KCRF5Rg9y9Djag35E3Hy-97" style="edgeStyle=orthogonalEdgeStyle;rounded=0;orthogonalLoop=1;jettySize=auto;html=1;exitX=0.5;exitY=1;exitDx=0;exitDy=0;entryX=0.5;entryY=0;entryDx=0;entryDy=0;fontFamily=Lucida Console;fontSize=14;fontStyle=1" edge="1" parent="1" source="KCRF5Rg9y9Djag35E3Hy-92" target="KCRF5Rg9y9Djag35E3Hy-96">
          <mxGeometry relative="1" as="geometry" />
        </mxCell>
        <mxCell id="KCRF5Rg9y9Djag35E3Hy-92" value="bool resParseLength;&amp;nbsp;" style="rounded=0;whiteSpace=wrap;html=1;fontFamily=Lucida Console;fontSize=14;fontStyle=1" vertex="1" parent="1">
          <mxGeometry x="-3020.14" y="550" width="200" height="70" as="geometry" />
        </mxCell>
        <mxCell id="KCRF5Rg9y9Djag35E3Hy-94" value="string strNumber;" style="rounded=0;whiteSpace=wrap;html=1;fontFamily=Lucida Console;fontSize=14;fontStyle=1" vertex="1" parent="1">
          <mxGeometry x="-3020.14" y="330" width="200" height="70" as="geometry" />
        </mxCell>
        <mxCell id="KCRF5Rg9y9Djag35E3Hy-101" style="edgeStyle=orthogonalEdgeStyle;rounded=0;orthogonalLoop=1;jettySize=auto;html=1;exitX=0.5;exitY=1;exitDx=0;exitDy=0;entryX=0.5;entryY=0;entryDx=0;entryDy=0;fontFamily=Lucida Console;fontSize=14;fontStyle=1" edge="1" parent="1" source="KCRF5Rg9y9Djag35E3Hy-96" target="KCRF5Rg9y9Djag35E3Hy-99">
          <mxGeometry relative="1" as="geometry" />
        </mxCell>
        <mxCell id="KCRF5Rg9y9Djag35E3Hy-96" value="int numberOfElements;&lt;br style=&quot;font-size: 14px;&quot;&gt;resParseLength = &lt;br style=&quot;font-size: 14px;&quot;&gt;TryParse( strNumber, out NumberOfElements);" style="shape=process;whiteSpace=wrap;html=1;backgroundOutline=1;fontFamily=Lucida Console;fontSize=14;fontStyle=1" vertex="1" parent="1">
          <mxGeometry x="-3200" y="660" width="560" height="110" as="geometry" />
        </mxCell>
        <mxCell id="KCRF5Rg9y9Djag35E3Hy-103" style="edgeStyle=orthogonalEdgeStyle;rounded=0;orthogonalLoop=1;jettySize=auto;html=1;exitX=1;exitY=0.5;exitDx=0;exitDy=0;fontFamily=Lucida Console;fontSize=14;fontStyle=1" edge="1" parent="1" source="KCRF5Rg9y9Djag35E3Hy-99" target="KCRF5Rg9y9Djag35E3Hy-102">
          <mxGeometry relative="1" as="geometry">
            <Array as="points">
              <mxPoint x="-2570.14" y="920" />
            </Array>
          </mxGeometry>
        </mxCell>
        <mxCell id="KCRF5Rg9y9Djag35E3Hy-104" value="YES" style="edgeLabel;html=1;align=center;verticalAlign=middle;resizable=0;points=[];fontFamily=Lucida Console;fontSize=14;fontStyle=1" vertex="1" connectable="0" parent="KCRF5Rg9y9Djag35E3Hy-103">
          <mxGeometry x="-0.7128" y="5" relative="1" as="geometry">
            <mxPoint x="-1" as="offset" />
          </mxGeometry>
        </mxCell>
        <mxCell id="KCRF5Rg9y9Djag35E3Hy-111" style="edgeStyle=orthogonalEdgeStyle;rounded=0;orthogonalLoop=1;jettySize=auto;html=1;exitX=0;exitY=0.5;exitDx=0;exitDy=0;entryX=0;entryY=0.5;entryDx=0;entryDy=0;fontFamily=Lucida Console;fontSize=14;fontStyle=1" edge="1" parent="1" source="KCRF5Rg9y9Djag35E3Hy-99" target="KCRF5Rg9y9Djag35E3Hy-19">
          <mxGeometry relative="1" as="geometry">
            <Array as="points">
              <mxPoint x="-3280.14" y="920" />
              <mxPoint x="-3280.14" y="1580" />
            </Array>
          </mxGeometry>
        </mxCell>
        <mxCell id="KCRF5Rg9y9Djag35E3Hy-112" value="NO" style="edgeLabel;html=1;align=center;verticalAlign=middle;resizable=0;points=[];fontFamily=Lucida Console;fontSize=14;fontStyle=1" vertex="1" connectable="0" parent="KCRF5Rg9y9Djag35E3Hy-111">
          <mxGeometry x="-0.9316" y="-5" relative="1" as="geometry">
            <mxPoint as="offset" />
          </mxGeometry>
        </mxCell>
        <mxCell id="KCRF5Rg9y9Djag35E3Hy-99" value="resParseLength == true?" style="rhombus;whiteSpace=wrap;html=1;fontFamily=Lucida Console;fontSize=14;fontStyle=1" vertex="1" parent="1">
          <mxGeometry x="-3020.2799999999997" y="820" width="200" height="200" as="geometry" />
        </mxCell>
        <mxCell id="KCRF5Rg9y9Djag35E3Hy-100" value="if" style="text;html=1;align=center;verticalAlign=middle;resizable=0;points=[];autosize=1;strokeColor=none;fillColor=none;rounded=0;shadow=0;fontStyle=3;fontFamily=Lucida Console;fontSize=14;" vertex="1" parent="1">
          <mxGeometry x="-2940.2799999999997" y="850" width="40" height="30" as="geometry" />
        </mxCell>
        <mxCell id="KCRF5Rg9y9Djag35E3Hy-109" style="edgeStyle=orthogonalEdgeStyle;rounded=0;orthogonalLoop=1;jettySize=auto;html=1;exitX=0.5;exitY=1;exitDx=0;exitDy=0;entryX=0.5;entryY=0;entryDx=0;entryDy=0;fontFamily=Lucida Console;fontSize=14;fontStyle=1" edge="1" parent="1" source="KCRF5Rg9y9Djag35E3Hy-102" target="KCRF5Rg9y9Djag35E3Hy-107">
          <mxGeometry relative="1" as="geometry" />
        </mxCell>
        <mxCell id="KCRF5Rg9y9Djag35E3Hy-110" style="edgeStyle=orthogonalEdgeStyle;rounded=0;orthogonalLoop=1;jettySize=auto;html=1;exitX=0.5;exitY=1;exitDx=0;exitDy=0;fontFamily=Lucida Console;fontSize=14;fontStyle=1" edge="1" parent="1" source="KCRF5Rg9y9Djag35E3Hy-102" target="KCRF5Rg9y9Djag35E3Hy-106">
          <mxGeometry relative="1" as="geometry" />
        </mxCell>
        <mxCell id="KCRF5Rg9y9Djag35E3Hy-102" value="Method &quot;GetArray()&quot;&lt;br style=&quot;font-size: 14px;&quot;&gt;&lt;br style=&quot;font-size: 14px;&quot;&gt;size = numberOfElements;&lt;br style=&quot;font-size: 14px;&quot;&gt;string[] userArray = GetArray(size);" style="shape=process;whiteSpace=wrap;html=1;backgroundOutline=1;fontFamily=Lucida Console;fontSize=14;fontStyle=1" vertex="1" parent="1">
          <mxGeometry x="-2740.14" y="1000" width="340" height="110" as="geometry" />
        </mxCell>
        <mxCell id="KCRF5Rg9y9Djag35E3Hy-108" style="edgeStyle=orthogonalEdgeStyle;rounded=0;orthogonalLoop=1;jettySize=auto;html=1;exitX=1;exitY=0.5;exitDx=0;exitDy=0;entryX=0;entryY=0.5;entryDx=0;entryDy=0;fontFamily=Lucida Console;fontSize=14;fontStyle=1" edge="1" parent="1" source="KCRF5Rg9y9Djag35E3Hy-106" target="KCRF5Rg9y9Djag35E3Hy-107">
          <mxGeometry relative="1" as="geometry" />
        </mxCell>
        <mxCell id="KCRF5Rg9y9Djag35E3Hy-106" value="Method &quot;CountLength()&quot;&lt;br style=&quot;font-size: 14px;&quot;&gt;&lt;br style=&quot;font-size: 14px;&quot;&gt;static count = CountLength(string[] userArray);" style="shape=process;whiteSpace=wrap;html=1;backgroundOutline=1;fontFamily=Lucida Console;fontSize=14;fontStyle=1" vertex="1" parent="1">
          <mxGeometry x="-3220.2799999999997" y="1200" width="340" height="110" as="geometry" />
        </mxCell>
        <mxCell id="KCRF5Rg9y9Djag35E3Hy-141" style="edgeStyle=orthogonalEdgeStyle;rounded=0;orthogonalLoop=1;jettySize=auto;html=1;exitX=0.5;exitY=1;exitDx=0;exitDy=0;entryX=0.476;entryY=0.01;entryDx=0;entryDy=0;entryPerimeter=0;" edge="1" parent="1" source="KCRF5Rg9y9Djag35E3Hy-107" target="KCRF5Rg9y9Djag35E3Hy-113">
          <mxGeometry relative="1" as="geometry" />
        </mxCell>
        <mxCell id="KCRF5Rg9y9Djag35E3Hy-142" style="edgeStyle=orthogonalEdgeStyle;rounded=0;orthogonalLoop=1;jettySize=auto;html=1;exitX=0.5;exitY=1;exitDx=0;exitDy=0;" edge="1" parent="1" source="KCRF5Rg9y9Djag35E3Hy-107" target="KCRF5Rg9y9Djag35E3Hy-115">
          <mxGeometry relative="1" as="geometry" />
        </mxCell>
        <mxCell id="KCRF5Rg9y9Djag35E3Hy-107" value="Method &quot;CreateNew Array()&quot;&lt;br style=&quot;font-size: 14px;&quot;&gt;&lt;br style=&quot;font-size: 14px;&quot;&gt;size = CountLength();&lt;br style=&quot;font-size: 14px;&quot;&gt;string[] decimArray = CreateNewArray(size);" style="shape=process;whiteSpace=wrap;html=1;backgroundOutline=1;fontFamily=Lucida Console;fontSize=14;fontStyle=1" vertex="1" parent="1">
          <mxGeometry x="-2740.14" y="1200" width="340" height="110" as="geometry" />
        </mxCell>
        <mxCell id="KCRF5Rg9y9Djag35E3Hy-144" style="edgeStyle=orthogonalEdgeStyle;rounded=0;orthogonalLoop=1;jettySize=auto;html=1;exitX=0.5;exitY=1;exitDx=0;exitDy=0;entryX=0.5;entryY=0;entryDx=0;entryDy=0;" edge="1" parent="1" source="KCRF5Rg9y9Djag35E3Hy-113" target="KCRF5Rg9y9Djag35E3Hy-121">
          <mxGeometry relative="1" as="geometry" />
        </mxCell>
        <mxCell id="KCRF5Rg9y9Djag35E3Hy-113" value="string.Join(userArray)" style="shape=process;whiteSpace=wrap;html=1;backgroundOutline=1;fontFamily=Lucida Console;fontSize=14;fontStyle=1" vertex="1" parent="1">
          <mxGeometry x="-2920.14" y="1370" width="340" height="40" as="geometry" />
        </mxCell>
        <mxCell id="KCRF5Rg9y9Djag35E3Hy-143" style="edgeStyle=orthogonalEdgeStyle;rounded=0;orthogonalLoop=1;jettySize=auto;html=1;exitX=0.5;exitY=1;exitDx=0;exitDy=0;" edge="1" parent="1" source="KCRF5Rg9y9Djag35E3Hy-115" target="KCRF5Rg9y9Djag35E3Hy-121">
          <mxGeometry relative="1" as="geometry" />
        </mxCell>
        <mxCell id="KCRF5Rg9y9Djag35E3Hy-115" value="string.Join(decimArray)" style="shape=process;whiteSpace=wrap;html=1;backgroundOutline=1;fontFamily=Lucida Console;fontSize=14;fontStyle=1" vertex="1" parent="1">
          <mxGeometry x="-2560.14" y="1370" width="340" height="40" as="geometry" />
        </mxCell>
        <mxCell id="KCRF5Rg9y9Djag35E3Hy-118" value="string array[size]" style="shape=parallelogram;html=1;strokeWidth=1;perimeter=parallelogramPerimeter;whiteSpace=wrap;rounded=0;arcSize=12;size=0.23;fontFamily=Lucida Console;fontSize=14;fontStyle=1" vertex="1" parent="1">
          <mxGeometry x="-2000" y="1090" width="250" height="80" as="geometry" />
        </mxCell>
        <mxCell id="KCRF5Rg9y9Djag35E3Hy-123" style="edgeStyle=orthogonalEdgeStyle;rounded=0;orthogonalLoop=1;jettySize=auto;html=1;entryX=1;entryY=0.5;entryDx=0;entryDy=0;fontFamily=Lucida Console;fontSize=14;fontStyle=1" edge="1" parent="1" source="KCRF5Rg9y9Djag35E3Hy-121" target="KCRF5Rg9y9Djag35E3Hy-19">
          <mxGeometry relative="1" as="geometry">
            <Array as="points">
              <mxPoint x="-2560.14" y="1580" />
            </Array>
          </mxGeometry>
        </mxCell>
        <mxCell id="KCRF5Rg9y9Djag35E3Hy-121" value="Console.Write($&quot; &quot;)" style="shape=document;whiteSpace=wrap;html=1;boundedLbl=1;fontFamily=Lucida Console;fontSize=14;fontStyle=1" vertex="1" parent="1">
          <mxGeometry x="-2690.14" y="1470" width="260" height="80" as="geometry" />
        </mxCell>
        <mxCell id="KCRF5Rg9y9Djag35E3Hy-125" value="" style="strokeWidth=2;html=1;shape=mxgraph.flowchart.annotation_2;align=left;labelPosition=right;pointerEvents=1;fontFamily=Lucida Console;fontSize=14;fontStyle=1" vertex="1" parent="1">
          <mxGeometry x="-2383.14" y="1005" width="50" height="100" as="geometry" />
        </mxCell>
        <mxCell id="KCRF5Rg9y9Djag35E3Hy-126" value="" style="strokeWidth=2;html=1;shape=mxgraph.flowchart.annotation_2;align=left;labelPosition=right;pointerEvents=1;fontFamily=Lucida Console;fontSize=14;fontStyle=1" vertex="1" parent="1">
          <mxGeometry x="-2383" y="1205" width="50" height="100" as="geometry" />
        </mxCell>
        <mxCell id="KCRF5Rg9y9Djag35E3Hy-127" value="" style="strokeWidth=2;html=1;shape=mxgraph.flowchart.annotation_2;align=left;labelPosition=right;pointerEvents=1;rotation=90;fontFamily=Lucida Console;fontSize=14;fontStyle=1" vertex="1" parent="1">
          <mxGeometry x="-3070.2799999999997" y="1310" width="50" height="100" as="geometry" />
        </mxCell>
        <mxCell id="KCRF5Rg9y9Djag35E3Hy-130" value="" style="strokeWidth=2;html=1;shape=mxgraph.flowchart.annotation_2;align=left;labelPosition=right;pointerEvents=1;fontFamily=Lucida Console;fontSize=14;fontStyle=1" vertex="1" parent="1">
          <mxGeometry x="-2210.14" y="1370" width="50" height="40" as="geometry" />
        </mxCell>
        <mxCell id="KCRF5Rg9y9Djag35E3Hy-131" value="Встроенный метод" style="text;html=1;align=center;verticalAlign=middle;resizable=0;points=[];autosize=1;strokeColor=none;fillColor=none;fontFamily=Lucida Console;fontSize=14;fontStyle=1" vertex="1" parent="1">
          <mxGeometry x="-2190" y="1375" width="160" height="30" as="geometry" />
        </mxCell>
        <mxCell id="KCRF5Rg9y9Djag35E3Hy-132" value="" style="strokeWidth=2;html=1;shape=mxgraph.flowchart.annotation_2;align=left;labelPosition=right;pointerEvents=1;fontFamily=Lucida Console;fontSize=14;fontStyle=1" vertex="1" parent="1">
          <mxGeometry x="-2610.14" y="710" width="50" height="40" as="geometry" />
        </mxCell>
        <mxCell id="KCRF5Rg9y9Djag35E3Hy-133" value="Встроенный метод" style="text;html=1;align=center;verticalAlign=middle;resizable=0;points=[];autosize=1;strokeColor=none;fillColor=none;fontFamily=Lucida Console;fontSize=14;fontStyle=1" vertex="1" parent="1">
          <mxGeometry x="-2590" y="715" width="160" height="30" as="geometry" />
        </mxCell>
        <mxCell id="KCRF5Rg9y9Djag35E3Hy-134" value="int size" style="shape=parallelogram;html=1;strokeWidth=1;perimeter=parallelogramPerimeter;whiteSpace=wrap;rounded=0;arcSize=12;size=0.23;fontFamily=Lucida Console;fontSize=14;fontStyle=1" vertex="1" parent="1">
          <mxGeometry x="-1788" y="440" width="190" height="80" as="geometry" />
        </mxCell>
        <mxCell id="KCRF5Rg9y9Djag35E3Hy-136" value="string arr[arr.Length]" style="shape=parallelogram;html=1;strokeWidth=1;perimeter=parallelogramPerimeter;whiteSpace=wrap;rounded=0;arcSize=12;size=0.23;fontFamily=Lucida Console;fontSize=14;fontStyle=1" vertex="1" parent="1">
          <mxGeometry x="-911" y="440" width="190" height="80" as="geometry" />
        </mxCell>
        <mxCell id="KCRF5Rg9y9Djag35E3Hy-137" value="int count" style="shape=parallelogram;html=1;strokeWidth=1;perimeter=parallelogramPerimeter;whiteSpace=wrap;rounded=0;arcSize=12;size=0.23;fontFamily=Lucida Console;fontSize=14;fontStyle=1" vertex="1" parent="1">
          <mxGeometry x="-1066" y="1090" width="130" height="80" as="geometry" />
        </mxCell>
        <mxCell id="KCRF5Rg9y9Djag35E3Hy-138" value="string arr[arr.Length];&lt;br style=&quot;border-color: var(--border-color); font-size: 14px;&quot;&gt;int size" style="shape=parallelogram;html=1;strokeWidth=1;perimeter=parallelogramPerimeter;whiteSpace=wrap;rounded=0;arcSize=12;size=0.23;fontFamily=Lucida Console;fontSize=14;fontStyle=1" vertex="1" parent="1">
          <mxGeometry x="-6" y="460" width="190" height="80" as="geometry" />
        </mxCell>
        <mxCell id="KCRF5Rg9y9Djag35E3Hy-139" value="string outArray[size]" style="shape=parallelogram;html=1;strokeWidth=1;perimeter=parallelogramPerimeter;whiteSpace=wrap;rounded=0;arcSize=12;size=0.23;fontFamily=Lucida Console;fontSize=14;fontStyle=1" vertex="1" parent="1">
          <mxGeometry x="-220" y="1089" width="250" height="80" as="geometry" />
        </mxCell>
        <mxCell id="KCRF5Rg9y9Djag35E3Hy-140" value="&lt;font style=&quot;font-size: 77px;&quot;&gt;Блок-схемы (основная программа и методы)&lt;/font&gt;" style="text;html=1;align=center;verticalAlign=middle;resizable=0;points=[];autosize=1;strokeColor=none;fillColor=none;" vertex="1" parent="1">
          <mxGeometry x="-2145" y="40" width="1620" height="110" as="geometry" />
        </mxCell>
      </root>
    </mxGraphModel>
  </diagram>
</mxfile>
